<svg width="30" height="22" viewBox="0 0 30 22" fill="none" xmlns="http://www.w3.org/2000/svg">
<path d="M23.1818 13.75V9.625H19.0909V6.875H23.1818V2.75H25.9091V6.875H30V9.625H25.9091V13.75H23.1818ZM10.9091 11C9.40909 11 8.125 10.4615 7.05682 9.38438C5.98864 8.30729 5.45455 7.0125 5.45455 5.5C5.45455 3.9875 5.98864 2.69271 7.05682 1.61563C8.125 0.538542 9.40909 0 10.9091 0C12.4091 0 13.6932 0.538542 14.7614 1.61563C15.8295 2.69271 16.3636 3.9875 16.3636 5.5C16.3636 7.0125 15.8295 8.30729 14.7614 9.38438C13.6932 10.4615 12.4091 11 10.9091 11ZM0 22V18.15C0 17.3708 0.198864 16.6547 0.596591 16.0016C0.994318 15.3484 1.52273 14.85 2.18182 14.5063C3.59091 13.7958 5.02273 13.263 6.47727 12.9078C7.93182 12.5526 9.40909 12.375 10.9091 12.375C12.4091 12.375 13.8864 12.5526 15.3409 12.9078C16.7955 13.263 18.2273 13.7958 19.6364 14.5063C20.2955 14.85 20.8239 15.3484 21.2216 16.0016C21.6193 16.6547 21.8182 17.3708 21.8182 18.15V22H0ZM2.72727 19.25H19.0909V18.15C19.0909 17.8979 19.0284 17.6688 18.9034 17.4625C18.7784 17.2563 18.6136 17.0958 18.4091 16.9813C17.1818 16.3625 15.9432 15.8984 14.6932 15.5891C13.4432 15.2797 12.1818 15.125 10.9091 15.125C9.63636 15.125 8.375 15.2797 7.125 15.5891C5.875 15.8984 4.63636 16.3625 3.40909 16.9813C3.20455 17.0958 3.03977 17.2563 2.91477 17.4625C2.78977 17.6688 2.72727 17.8979 2.72727 18.15V19.25ZM10.9091 8.25C11.6591 8.25 12.3011 7.98073 12.8352 7.44219C13.3693 6.90365 13.6364 6.25625 13.6364 5.5C13.6364 4.74375 13.3693 4.09635 12.8352 3.55781C12.3011 3.01927 11.6591 2.75 10.9091 2.75C10.1591 2.75 9.51705 3.01927 8.98295 3.55781C8.44886 4.09635 8.18182 4.74375 8.18182 5.5C8.18182 6.25625 8.44886 6.90365 8.98295 7.44219C9.51705 7.98073 10.1591 8.25 10.9091 8.25Z" fill="#383838"/>
</svg>
