<svg width="32" height="32" viewBox="0 0 32 32" fill="none" xmlns="http://www.w3.org/2000/svg">
<path d="M20.0001 11.5853C18.8875 10.5795 17.4406 10.0236 15.9408 10.0255M15.9408 10.0255C15.1433 10.0261 14.3537 10.1837 13.6171 10.4894C12.8806 10.795 12.2114 11.2428 11.6479 11.8071C11.0843 12.3714 10.6375 13.0411 10.3328 13.7781C10.0281 14.5151 9.87154 15.3049 9.87208 16.1023C9.87208 19.4588 12.5884 22.1791 15.9408 22.1791M15.9408 10.0255L15.9418 7.99995M15.9408 22.1791C17.4386 22.1812 18.8839 21.6268 19.996 20.6235M15.9408 22.1791L15.9418 24.2047M28.7999 15.9999C28.7999 23.0692 23.0692 28.7999 15.9999 28.7999C8.93071 28.7999 3.19995 23.0692 3.19995 15.9999C3.19995 8.93071 8.93071 3.19995 15.9999 3.19995C23.0692 3.19995 28.7999 8.93071 28.7999 15.9999Z" stroke="black" stroke-width="2" stroke-linecap="round" stroke-linejoin="round"/>
</svg>
