<svg width="30" height="30" viewBox="0 0 30 30" fill="none" xmlns="http://www.w3.org/2000/svg">
<path d="M12.2727 19.4318C11.7955 19.4318 11.392 19.267 11.0625 18.9375C10.733 18.608 10.5682 18.2045 10.5682 17.7273C10.5682 17.25 10.733 16.8466 11.0625 16.517C11.392 16.1875 11.7955 16.0227 12.2727 16.0227C12.75 16.0227 13.1534 16.1875 13.483 16.517C13.8125 16.8466 13.9773 17.25 13.9773 17.7273C13.9773 18.2045 13.8125 18.608 13.483 18.9375C13.1534 19.267 12.75 19.4318 12.2727 19.4318ZM20.4545 19.4318C19.9773 19.4318 19.5739 19.267 19.2443 18.9375C18.9148 18.608 18.75 18.2045 18.75 17.7273C18.75 17.25 18.9148 16.8466 19.2443 16.517C19.5739 16.1875 19.9773 16.0227 20.4545 16.0227C20.9318 16.0227 21.3352 16.1875 21.6648 16.517C21.9943 16.8466 22.1591 17.25 22.1591 17.7273C22.1591 18.2045 21.9943 18.608 21.6648 18.9375C21.3352 19.267 20.9318 19.4318 20.4545 19.4318ZM16.3636 27.2727C19.4091 27.2727 21.9886 26.2159 24.1023 24.1023C26.2159 21.9886 27.2727 19.4091 27.2727 16.3636C27.2727 15.8182 27.2386 15.2898 27.1705 14.7784C27.1023 14.267 26.9773 13.7727 26.7955 13.2955C26.3182 13.4091 25.8409 13.4943 25.3636 13.5511C24.8864 13.608 24.3864 13.6364 23.8636 13.6364C21.7955 13.6364 19.8409 13.1932 18 12.3068C16.1591 11.4205 14.5909 10.1818 13.2955 8.59091C12.5682 10.3636 11.5284 11.9034 10.1761 13.2102C8.82386 14.517 7.25 15.5 5.45455 16.1591V16.3636C5.45455 19.4091 6.51136 21.9886 8.625 24.1023C10.7386 26.2159 13.3182 27.2727 16.3636 27.2727ZM14.5227 5.625C15.4773 7.21591 16.7727 8.49432 18.4091 9.46023C20.0455 10.4261 21.8636 10.9091 23.8636 10.9091C24.1818 10.9091 24.4886 10.892 24.7841 10.858C25.0795 10.8239 25.3864 10.7841 25.7045 10.7386C24.75 9.14773 23.4545 7.86932 21.8182 6.90341C20.1818 5.9375 18.3636 5.45455 16.3636 5.45455C16.0455 5.45455 15.7386 5.47159 15.4432 5.50568C15.1477 5.53977 14.8409 5.57955 14.5227 5.625ZM6.03409 12.9205C7.19318 12.2614 8.20455 11.4091 9.06818 10.3636C9.93182 9.31818 10.5795 8.14773 11.0114 6.85227C9.85227 7.51136 8.84091 8.36364 7.97727 9.40909C7.11364 10.4545 6.46591 11.625 6.03409 12.9205ZM4.32955 9.98864C4.96591 8.78409 5.76705 7.69886 6.73295 6.73295C7.69886 5.76705 8.78409 4.96591 9.98864 4.32955C9.60227 3.85227 9.13636 3.46591 8.59091 3.17045C8.04545 2.875 7.44318 2.72727 6.78409 2.72727C5.64773 2.72727 4.6875 3.11932 3.90341 3.90341C3.11932 4.6875 2.72727 5.64773 2.72727 6.78409C2.72727 7.44318 2.875 8.04545 3.17045 8.59091C3.46591 9.13636 3.85227 9.60227 4.32955 9.98864ZM16.3636 30C14.4773 30 12.7045 29.642 11.0455 28.9261C9.38636 28.2102 7.94318 27.2386 6.71591 26.0114C5.48864 24.7841 4.51705 23.3409 3.80114 21.6818C3.08523 20.0227 2.72727 18.25 2.72727 16.3636C2.72727 15.7045 2.77273 15.0511 2.86364 14.4034C2.95455 13.7557 3.09091 13.1364 3.27273 12.5455C2.29545 11.9545 1.50568 11.1534 0.903409 10.142C0.301136 9.13068 0 8.01136 0 6.78409C0 4.89773 0.659091 3.29545 1.97727 1.97727C3.29545 0.659091 4.89773 0 6.78409 0C7.98864 0 9.09659 0.289773 10.108 0.869318C11.1193 1.44886 11.9318 2.25 12.5455 3.27273C13.1364 3.09091 13.7557 2.95455 14.4034 2.86364C15.0511 2.77273 15.7045 2.72727 16.3636 2.72727C18.25 2.72727 20.0227 3.08523 21.6818 3.80114C23.3409 4.51705 24.7841 5.48864 26.0114 6.71591C27.2386 7.94318 28.2102 9.38636 28.9261 11.0455C29.642 12.7045 30 14.4773 30 16.3636C30 18.25 29.642 20.0227 28.9261 21.6818C28.2102 23.3409 27.2386 24.7841 26.0114 26.0114C24.7841 27.2386 23.3409 28.2102 21.6818 28.9261C20.0227 29.642 18.25 30 16.3636 30Z" fill="#383838"/>
</svg>
