<svg width="30" height="30" viewBox="0 0 30 30" fill="none" xmlns="http://www.w3.org/2000/svg">
<path d="M15 24.5455C17.837 24.5455 20.2399 23.483 22.2089 21.358C24.1778 19.233 25.1623 16.6591 25.1623 13.6364C25.1623 12.9318 25.1094 12.2557 25.0035 11.608C24.8977 10.9602 24.7283 10.3295 24.4954 9.71591C23.9238 10.1023 23.3204 10.3977 22.6852 10.6023C22.0501 10.8068 21.3938 10.9091 20.7163 10.9091C19.573 10.9091 18.4986 10.6307 17.4929 10.0739C16.4873 9.51705 15.6563 8.72727 15 7.70455C14.3437 8.72727 13.5127 9.51705 12.5071 10.0739C11.5014 10.6307 10.427 10.9091 9.2837 10.9091C8.60621 10.9091 7.94989 10.8068 7.31475 10.6023C6.6796 10.3977 6.07622 10.1023 5.50459 9.71591C5.2717 10.3295 5.10233 10.9602 4.99647 11.608C4.89061 12.2557 4.83768 12.9318 4.83768 13.6364C4.83768 16.6591 5.82745 19.233 7.80699 21.358C9.78652 23.483 12.1842 24.5455 15 24.5455ZM11.1891 16.7045C11.6337 16.7045 12.0095 16.5398 12.3165 16.2102C12.6235 15.8807 12.777 15.4773 12.777 15C12.777 14.5227 12.6235 14.1193 12.3165 13.7898C12.0095 13.4602 11.6337 13.2955 11.1891 13.2955C10.7445 13.2955 10.3687 13.4602 10.0617 13.7898C9.75476 14.1193 9.60127 14.5227 9.60127 15C9.60127 15.4773 9.75476 15.8807 10.0617 16.2102C10.3687 16.5398 10.7445 16.7045 11.1891 16.7045ZM18.8109 16.7045C19.2555 16.7045 19.6313 16.5398 19.9382 16.2102C20.2452 15.8807 20.3987 15.4773 20.3987 15C20.3987 14.5227 20.2452 14.1193 19.9382 13.7898C19.6313 13.4602 19.2555 13.2955 18.8109 13.2955C18.3663 13.2955 17.9905 13.4602 17.6835 13.7898C17.3765 14.1193 17.223 14.5227 17.223 15C17.223 15.4773 17.3765 15.8807 17.6835 16.2102C17.9905 16.5398 18.3663 16.7045 18.8109 16.7045ZM9.2837 8.18182C10.5116 8.18182 11.5596 7.71591 12.4277 6.78409C13.2957 5.85227 13.7297 4.72727 13.7297 3.40909V2.79545C12.29 2.97727 10.9668 3.46591 9.76006 4.26136C8.55328 5.05682 7.54764 6.06818 6.74312 7.29545C7.12421 7.56818 7.52646 7.78409 7.94989 7.94318C8.37332 8.10227 8.81793 8.18182 9.2837 8.18182ZM20.7163 8.18182C21.1821 8.18182 21.6267 8.10795 22.0501 7.96023C22.4735 7.8125 22.8758 7.59091 23.2569 7.29545C22.4524 6.06818 21.452 5.05682 20.2558 4.26136C19.0596 3.46591 17.7311 2.97727 16.2703 2.79545V3.40909C16.2703 4.72727 16.7043 5.85227 17.5723 6.78409C18.4404 7.71591 19.4884 8.18182 20.7163 8.18182ZM2.55116 30C1.81016 30 1.1856 29.7045 0.677488 29.1136C0.169372 28.5227 -0.0529287 27.8295 0.0105857 27.0341L1.15385 13.5682C1.32322 11.6591 1.80487 9.875 2.5988 8.21591C3.39273 6.55682 4.40896 5.11932 5.64749 3.90341C6.88603 2.6875 8.30452 1.73295 9.90296 1.03977C11.5014 0.346591 13.2004 0 15 0C16.7996 0 18.4986 0.346591 20.097 1.03977C21.6955 1.73295 23.114 2.6875 24.3525 3.90341C25.591 5.11932 26.6073 6.55682 27.4012 8.21591C28.1951 9.875 28.6768 11.6591 28.8462 13.5682L29.9894 27.0341C30.0529 27.8295 29.8306 28.5227 29.3225 29.1136C28.8144 29.7045 28.1898 30 27.4488 30H2.55116ZM15 27.2727C12.3536 27.2727 9.97177 26.483 7.85462 24.9034C5.73747 23.3239 4.20254 21.2955 3.24982 18.8182L2.55116 27.2727H27.4488L26.7502 18.8182C25.7975 21.2955 24.2678 23.3239 22.1613 24.9034C20.0547 26.483 17.6676 27.2727 15 27.2727ZM15 27.2727H27.4488H2.55116H15Z" fill="#383838"/>
</svg>
