<svg width="30" height="30" viewBox="0 0 30 30" fill="none" xmlns="http://www.w3.org/2000/svg">
<path d="M15 6C14.8 6 14.625 5.925 14.475 5.775C14.325 5.625 14.25 5.45 14.25 5.25C14.25 5.05 14.325 4.875 14.475 4.725C14.625 4.575 14.8 4.5 15 4.5C15.2 4.5 15.375 4.575 15.525 4.725C15.675 4.875 15.75 5.05 15.75 5.25C15.75 5.45 15.675 5.625 15.525 5.775C15.375 5.925 15.2 6 15 6ZM18 6C17.8 6 17.625 5.925 17.475 5.775C17.325 5.625 17.25 5.45 17.25 5.25C17.25 5.05 17.325 4.875 17.475 4.725C17.625 4.575 17.8 4.5 18 4.5C18.2 4.5 18.375 4.575 18.525 4.725C18.675 4.875 18.75 5.05 18.75 5.25C18.75 5.45 18.675 5.625 18.525 5.775C18.375 5.925 18.2 6 18 6ZM12 6C11.8 6 11.625 5.925 11.475 5.775C11.325 5.625 11.25 5.45 11.25 5.25C11.25 5.05 11.325 4.875 11.475 4.725C11.625 4.575 11.8 4.5 12 4.5C12.2 4.5 12.375 4.575 12.525 4.725C12.675 4.875 12.75 5.05 12.75 5.25C12.75 5.45 12.675 5.625 12.525 5.775C12.375 5.925 12.2 6 12 6ZM22.5 7.5C22.3 7.5 22.125 7.425 21.975 7.275C21.825 7.125 21.75 6.95 21.75 6.75C21.75 6.55 21.825 6.375 21.975 6.225C22.125 6.075 22.3 6 22.5 6C22.7 6 22.875 6.075 23.025 6.225C23.175 6.375 23.25 6.55 23.25 6.75C23.25 6.95 23.175 7.125 23.025 7.275C22.875 7.425 22.7 7.5 22.5 7.5ZM10.5 7.5C10.3 7.5 10.125 7.425 9.975 7.275C9.825 7.125 9.75 6.95 9.75 6.75C9.75 6.55 9.825 6.375 9.975 6.225C10.125 6.075 10.3 6 10.5 6C10.7 6 10.875 6.075 11.025 6.225C11.175 6.375 11.25 6.55 11.25 6.75C11.25 6.95 11.175 7.125 11.025 7.275C10.875 7.425 10.7 7.5 10.5 7.5ZM7.5 7.5C7.3 7.5 7.125 7.425 6.975 7.275C6.825 7.125 6.75 6.95 6.75 6.75C6.75 6.55 6.825 6.375 6.975 6.225C7.125 6.075 7.3 6 7.5 6C7.7 6 7.875 6.075 8.025 6.225C8.175 6.375 8.25 6.55 8.25 6.75C8.25 6.95 8.175 7.125 8.025 7.275C7.875 7.425 7.7 7.5 7.5 7.5ZM13.5 7.5C13.3 7.5 13.125 7.425 12.975 7.275C12.825 7.125 12.75 6.95 12.75 6.75C12.75 6.55 12.825 6.375 12.975 6.225C13.125 6.075 13.3 6 13.5 6C13.7 6 13.875 6.075 14.025 6.225C14.175 6.375 14.25 6.55 14.25 6.75C14.25 6.95 14.175 7.125 14.025 7.275C13.875 7.425 13.7 7.5 13.5 7.5ZM16.5 7.5C16.3 7.5 16.125 7.425 15.975 7.275C15.825 7.125 15.75 6.95 15.75 6.75C15.75 6.55 15.825 6.375 15.975 6.225C16.125 6.075 16.3 6 16.5 6C16.7 6 16.875 6.075 17.025 6.225C17.175 6.375 17.25 6.55 17.25 6.75C17.25 6.95 17.175 7.125 17.025 7.275C16.875 7.425 16.7 7.5 16.5 7.5ZM19.5 7.5C19.3 7.5 19.125 7.425 18.975 7.275C18.825 7.125 18.75 6.95 18.75 6.75C18.75 6.55 18.825 6.375 18.975 6.225C19.125 6.075 19.3 6 19.5 6C19.7 6 19.875 6.075 20.025 6.225C20.175 6.375 20.25 6.55 20.25 6.75C20.25 6.95 20.175 7.125 20.025 7.275C19.875 7.425 19.7 7.5 19.5 7.5ZM15 9C14.8 9 14.625 8.925 14.475 8.775C14.325 8.625 14.25 8.45 14.25 8.25C14.25 8.05 14.325 7.875 14.475 7.725C14.625 7.575 14.8 7.5 15 7.5C15.2 7.5 15.375 7.575 15.525 7.725C15.675 7.875 15.75 8.05 15.75 8.25C15.75 8.45 15.675 8.625 15.525 8.775C15.375 8.925 15.2 9 15 9ZM18 9C17.8 9 17.625 8.925 17.475 8.775C17.325 8.625 17.25 8.45 17.25 8.25C17.25 8.05 17.325 7.875 17.475 7.725C17.625 7.575 17.8 7.5 18 7.5C18.2 7.5 18.375 7.575 18.525 7.725C18.675 7.875 18.75 8.05 18.75 8.25C18.75 8.45 18.675 8.625 18.525 8.775C18.375 8.925 18.2 9 18 9ZM21 9C20.8 9 20.625 8.925 20.475 8.775C20.325 8.625 20.25 8.45 20.25 8.25C20.25 8.05 20.325 7.875 20.475 7.725C20.625 7.575 20.8 7.5 21 7.5C21.2 7.5 21.375 7.575 21.525 7.725C21.675 7.875 21.75 8.05 21.75 8.25C21.75 8.45 21.675 8.625 21.525 8.775C21.375 8.925 21.2 9 21 9ZM12 9C11.8 9 11.625 8.925 11.475 8.775C11.325 8.625 11.25 8.45 11.25 8.25C11.25 8.05 11.325 7.875 11.475 7.725C11.625 7.575 11.8 7.5 12 7.5C12.2 7.5 12.375 7.575 12.525 7.725C12.675 7.875 12.75 8.05 12.75 8.25C12.75 8.45 12.675 8.625 12.525 8.775C12.375 8.925 12.2 9 12 9ZM9 9C8.8 9 8.625 8.925 8.475 8.775C8.325 8.625 8.25 8.45 8.25 8.25C8.25 8.05 8.325 7.875 8.475 7.725C8.625 7.575 8.8 7.5 9 7.5C9.2 7.5 9.375 7.575 9.525 7.725C9.675 7.875 9.75 8.05 9.75 8.25C9.75 8.45 9.675 8.625 9.525 8.775C9.375 8.925 9.2 9 9 9ZM10.5 10.5C10.3 10.5 10.125 10.425 9.975 10.275C9.825 10.125 9.75 9.95 9.75 9.75C9.75 9.55 9.825 9.375 9.975 9.225C10.125 9.075 10.3 9 10.5 9C10.7 9 10.875 9.075 11.025 9.225C11.175 9.375 11.25 9.55 11.25 9.75C11.25 9.95 11.175 10.125 11.025 10.275C10.875 10.425 10.7 10.5 10.5 10.5ZM7.5 10.5C7.3 10.5 7.125 10.425 6.975 10.275C6.825 10.125 6.75 9.95 6.75 9.75C6.75 9.55 6.825 9.375 6.975 9.225C7.125 9.075 7.3 9 7.5 9C7.7 9 7.875 9.075 8.025 9.225C8.175 9.375 8.25 9.55 8.25 9.75C8.25 9.95 8.175 10.125 8.025 10.275C7.875 10.425 7.7 10.5 7.5 10.5ZM13.5 10.5C13.3 10.5 13.125 10.425 12.975 10.275C12.825 10.125 12.75 9.95 12.75 9.75C12.75 9.55 12.825 9.375 12.975 9.225C13.125 9.075 13.3 9 13.5 9C13.7 9 13.875 9.075 14.025 9.225C14.175 9.375 14.25 9.55 14.25 9.75C14.25 9.95 14.175 10.125 14.025 10.275C13.875 10.425 13.7 10.5 13.5 10.5ZM16.5 10.5C16.3 10.5 16.125 10.425 15.975 10.275C15.825 10.125 15.75 9.95 15.75 9.75C15.75 9.55 15.825 9.375 15.975 9.225C16.125 9.075 16.3 9 16.5 9C16.7 9 16.875 9.075 17.025 9.225C17.175 9.375 17.25 9.55 17.25 9.75C17.25 9.95 17.175 10.125 17.025 10.275C16.875 10.425 16.7 10.5 16.5 10.5ZM19.5 10.5C19.3 10.5 19.125 10.425 18.975 10.275C18.825 10.125 18.75 9.95 18.75 9.75C18.75 9.55 18.825 9.375 18.975 9.225C19.125 9.075 19.3 9 19.5 9C19.7 9 19.875 9.075 20.025 9.225C20.175 9.375 20.25 9.55 20.25 9.75C20.25 9.95 20.175 10.125 20.025 10.275C19.875 10.425 19.7 10.5 19.5 10.5ZM22.5 10.5C22.3 10.5 22.125 10.425 21.975 10.275C21.825 10.125 21.75 9.95 21.75 9.75C21.75 9.55 21.825 9.375 21.975 9.225C22.125 9.075 22.3 9 22.5 9C22.7 9 22.875 9.075 23.025 9.225C23.175 9.375 23.25 9.55 23.25 9.75C23.25 9.95 23.175 10.125 23.025 10.275C22.875 10.425 22.7 10.5 22.5 10.5ZM4.5 10.5C4.3 10.5 4.125 10.425 3.975 10.275C3.825 10.125 3.75 9.95 3.75 9.75C3.75 9.55 3.825 9.375 3.975 9.225C4.125 9.075 4.3 9 4.5 9C4.7 9 4.875 9.075 5.025 9.225C5.175 9.375 5.25 9.55 5.25 9.75C5.25 9.95 5.175 10.125 5.025 10.275C4.875 10.425 4.7 10.5 4.5 10.5ZM6 9C5.8 9 5.625 8.925 5.475 8.775C5.325 8.625 5.25 8.45 5.25 8.25C5.25 8.05 5.325 7.875 5.475 7.725C5.625 7.575 5.8 7.5 6 7.5C6.2 7.5 6.375 7.575 6.525 7.725C6.675 7.875 6.75 8.05 6.75 8.25C6.75 8.45 6.675 8.625 6.525 8.775C6.375 8.925 6.2 9 6 9ZM9 6C8.8 6 8.625 5.925 8.475 5.775C8.325 5.625 8.25 5.45 8.25 5.25C8.25 5.05 8.325 4.875 8.475 4.725C8.625 4.575 8.8 4.5 9 4.5C9.2 4.5 9.375 4.575 9.525 4.725C9.675 4.875 9.75 5.05 9.75 5.25C9.75 5.45 9.675 5.625 9.525 5.775C9.375 5.925 9.2 6 9 6ZM10.5 4.5C10.3 4.5 10.125 4.425 9.975 4.275C9.825 4.125 9.75 3.95 9.75 3.75C9.75 3.55 9.825 3.375 9.975 3.225C10.125 3.075 10.3 3 10.5 3C10.7 3 10.875 3.075 11.025 3.225C11.175 3.375 11.25 3.55 11.25 3.75C11.25 3.95 11.175 4.125 11.025 4.275C10.875 4.425 10.7 4.5 10.5 4.5ZM13.5 4.5C13.3 4.5 13.125 4.425 12.975 4.275C12.825 4.125 12.75 3.95 12.75 3.75C12.75 3.55 12.825 3.375 12.975 3.225C13.125 3.075 13.3 3 13.5 3C13.7 3 13.875 3.075 14.025 3.225C14.175 3.375 14.25 3.55 14.25 3.75C14.25 3.95 14.175 4.125 14.025 4.275C13.875 4.425 13.7 4.5 13.5 4.5ZM16.5 4.5C16.3 4.5 16.125 4.425 15.975 4.275C15.825 4.125 15.75 3.95 15.75 3.75C15.75 3.55 15.825 3.375 15.975 3.225C16.125 3.075 16.3 3 16.5 3C16.7 3 16.875 3.075 17.025 3.225C17.175 3.375 17.25 3.55 17.25 3.75C17.25 3.95 17.175 4.125 17.025 4.275C16.875 4.425 16.7 4.5 16.5 4.5ZM19.5 4.5C19.3 4.5 19.125 4.425 18.975 4.275C18.825 4.125 18.75 3.95 18.75 3.75C18.75 3.55 18.825 3.375 18.975 3.225C19.125 3.075 19.3 3 19.5 3C19.7 3 19.875 3.075 20.025 3.225C20.175 3.375 20.25 3.55 20.25 3.75C20.25 3.95 20.175 4.125 20.025 4.275C19.875 4.425 19.7 4.5 19.5 4.5ZM21 6C20.8 6 20.625 5.925 20.475 5.775C20.325 5.625 20.25 5.45 20.25 5.25C20.25 5.05 20.325 4.875 20.475 4.725C20.625 4.575 20.8 4.5 21 4.5C21.2 4.5 21.375 4.575 21.525 4.725C21.675 4.875 21.75 5.05 21.75 5.25C21.75 5.45 21.675 5.625 21.525 5.775C21.375 5.925 21.2 6 21 6ZM24 9C23.8 9 23.625 8.925 23.475 8.775C23.325 8.625 23.25 8.45 23.25 8.25C23.25 8.05 23.325 7.875 23.475 7.725C23.625 7.575 23.8 7.5 24 7.5C24.2 7.5 24.375 7.575 24.525 7.725C24.675 7.875 24.75 8.05 24.75 8.25C24.75 8.45 24.675 8.625 24.525 8.775C24.375 8.925 24.2 9 24 9ZM25.5 10.5C25.3 10.5 25.125 10.425 24.975 10.275C24.825 10.125 24.75 9.95 24.75 9.75C24.75 9.55 24.825 9.375 24.975 9.225C25.125 9.075 25.3 9 25.5 9C25.7 9 25.875 9.075 26.025 9.225C26.175 9.375 26.25 9.55 26.25 9.75C26.25 9.95 26.175 10.125 26.025 10.275C25.875 10.425 25.7 10.5 25.5 10.5ZM10.5 18.375C9.975 18.375 9.53125 18.1938 9.16875 17.8313C8.80625 17.4688 8.625 17.025 8.625 16.5C8.625 15.975 8.80625 15.5313 9.16875 15.1688C9.53125 14.8063 9.975 14.625 10.5 14.625C11.025 14.625 11.4688 14.8063 11.8313 15.1688C12.1938 15.5313 12.375 15.975 12.375 16.5C12.375 17.025 12.1938 17.4688 11.8313 17.8313C11.4688 18.1938 11.025 18.375 10.5 18.375ZM19.5 18.375C18.975 18.375 18.5312 18.1938 18.1688 17.8313C17.8063 17.4688 17.625 17.025 17.625 16.5C17.625 15.975 17.8063 15.5313 18.1688 15.1688C18.5312 14.8063 18.975 14.625 19.5 14.625C20.025 14.625 20.4688 14.8063 20.8313 15.1688C21.1938 15.5313 21.375 15.975 21.375 16.5C21.375 17.025 21.1938 17.4688 20.8313 17.8313C20.4688 18.1938 20.025 18.375 19.5 18.375ZM15 30C12.95 30 11.0125 29.6063 9.1875 28.8188C7.3625 28.0313 5.76875 26.9563 4.40625 25.5938C3.04375 24.2313 1.96875 22.6375 1.18125 20.8125C0.39375 18.9875 0 17.05 0 15C0 12.925 0.39375 10.975 1.18125 9.15C1.96875 7.325 3.04375 5.7375 4.40625 4.3875C5.76875 3.0375 7.3625 1.96875 9.1875 1.18125C11.0125 0.39375 12.95 0 15 0C17.075 0 19.025 0.39375 20.85 1.18125C22.675 1.96875 24.2625 3.0375 25.6125 4.3875C26.9625 5.7375 28.0313 7.325 28.8188 9.15C29.6063 10.975 30 12.925 30 15C30 17.05 29.6063 18.9875 28.8188 20.8125C28.0313 22.6375 26.9625 24.2313 25.6125 25.5938C24.2625 26.9563 22.675 28.0313 20.85 28.8188C19.025 29.6063 17.075 30 15 30ZM15 27C18.35 27 21.1875 25.8313 23.5125 23.4938C25.8375 21.1562 27 18.325 27 15C27 11.65 25.8375 8.8125 23.5125 6.4875C21.1875 4.1625 18.35 3 15 3C11.675 3 8.84375 4.1625 6.50625 6.4875C4.16875 8.8125 3 11.65 3 15C3 18.325 4.16875 21.1562 6.50625 23.4938C8.84375 25.8313 11.675 27 15 27Z" fill="#383838"/>
</svg>
