<svg width="30" height="30" viewBox="0 0 30 30" fill="none" xmlns="http://www.w3.org/2000/svg">
<path d="M15 30C12.95 30 11.0125 29.6063 9.1875 28.8188C7.3625 28.0313 5.76875 26.9563 4.40625 25.5938C3.04375 24.2313 1.96875 22.6375 1.18125 20.8125C0.39375 18.9875 0 17.05 0 15C0 12.925 0.39375 10.975 1.18125 9.15C1.96875 7.325 3.04375 5.7375 4.40625 4.3875C5.76875 3.0375 7.3625 1.96875 9.1875 1.18125C11.0125 0.39375 12.95 0 15 0C17.075 0 19.025 0.39375 20.85 1.18125C22.675 1.96875 24.2625 3.0375 25.6125 4.3875C26.9625 5.7375 28.0313 7.325 28.8188 9.15C29.6063 10.975 30 12.925 30 15C30 17.05 29.6063 18.9875 28.8188 20.8125C28.0313 22.6375 26.9625 24.2313 25.6125 25.5938C24.2625 26.9563 22.675 28.0313 20.85 28.8188C19.025 29.6063 17.075 30 15 30ZM15 3C12.225 3 9.775 3.83125 7.65 5.49375C5.525 7.15625 4.1125 9.275 3.4125 11.85C3.9125 11.725 4.43125 11.4813 4.96875 11.1188C5.50625 10.7563 6.125 9.875 6.825 8.475C7.2 7.7 7.75 7.09375 8.475 6.65625C9.2 6.21875 10 6 10.875 6H19.125C20 6 20.8 6.21875 21.525 6.65625C22.25 7.09375 22.8 7.7 23.175 8.475C23.875 9.9 24.5063 10.7875 25.0688 11.1375C25.6313 11.4875 26.1375 11.725 26.5875 11.85C25.8875 9.275 24.4813 7.15625 22.3688 5.49375C20.2563 3.83125 17.8 3 15 3ZM15 27C18.35 27 21.1938 25.825 23.5312 23.475C25.8688 21.125 27.025 18.275 27 14.925C25.225 14.75 23.8625 14.1938 22.9125 13.2563C21.9625 12.3188 21.15 11.175 20.475 9.825C20.35 9.55 20.1688 9.34375 19.9313 9.20625C19.6938 9.06875 19.4375 9 19.1625 9H10.875C10.575 9 10.3063 9.06875 10.0688 9.20625C9.83125 9.34375 9.65 9.55 9.525 9.825C8.85 11.2 8.025 12.3563 7.05 13.2938C6.075 14.2313 4.725 14.7875 3 14.9625C3 18.3125 4.16875 21.1562 6.50625 23.4938C8.84375 25.8313 11.675 27 15 27ZM10.5 18.375C9.975 18.375 9.53125 18.1938 9.16875 17.8313C8.80625 17.4688 8.625 17.025 8.625 16.5C8.625 15.975 8.80625 15.5313 9.16875 15.1688C9.53125 14.8063 9.975 14.625 10.5 14.625C11.025 14.625 11.4688 14.8063 11.8313 15.1688C12.1938 15.5313 12.375 15.975 12.375 16.5C12.375 17.025 12.1938 17.4688 11.8313 17.8313C11.4688 18.1938 11.025 18.375 10.5 18.375ZM19.5 18.375C18.975 18.375 18.5312 18.1938 18.1688 17.8313C17.8063 17.4688 17.625 17.025 17.625 16.5C17.625 15.975 17.8063 15.5313 18.1688 15.1688C18.5312 14.8063 18.975 14.625 19.5 14.625C20.025 14.625 20.4688 14.8063 20.8313 15.1688C21.1938 15.5313 21.375 15.975 21.375 16.5C21.375 17.025 21.1938 17.4688 20.8313 17.8313C20.4688 18.1938 20.025 18.375 19.5 18.375Z" fill="#383838"/>
</svg>
