<svg width="30" height="30" viewBox="0 0 30 30" fill="none" xmlns="http://www.w3.org/2000/svg">
<path d="M15 28.762C14.521 28.762 14.0421 28.7308 13.5631 28.6682C13.0841 28.6057 12.6051 28.5223 12.1262 28.4181C10.2936 29.7729 8.2788 30.2574 6.08178 29.8719C3.88476 29.4863 2.20316 28.3139 1.03697 26.3548C0.0998566 24.8125 -0.202103 23.1555 0.131094 21.3839C0.464291 19.6124 1.26605 18.1222 2.53636 16.9133V16.8195C1.24522 15.6315 0.443466 14.1674 0.131094 12.4271C-0.181278 10.6868 0.110269 9.04545 1.00574 7.50314C1.77625 6.19009 2.83832 5.19488 4.19193 4.51751C5.54554 3.84015 6.97204 3.60567 8.47143 3.81409C9.13782 2.6261 10.0489 1.69342 11.2047 1.01605C12.3605 0.338683 13.6256 0 15 0C16.3744 0 17.6395 0.338683 18.7953 1.01605C19.9511 1.69342 20.8622 2.6261 21.5286 3.81409C23.028 3.60567 24.4545 3.84015 25.8081 4.51751C27.1617 5.19488 28.2237 6.19009 28.9943 7.50314C29.8897 9.04545 30.1813 10.6868 29.8689 12.4271C29.5565 14.1674 28.7548 15.6315 27.4636 16.8195V16.9133C28.734 18.1222 29.5357 19.6124 29.8689 21.3839C30.2021 23.1555 29.9001 24.8125 28.963 26.3548C27.7968 28.3139 26.1152 29.4863 23.9182 29.8719C21.7212 30.2574 19.7064 29.7729 17.8738 28.4181C17.3949 28.5223 16.9159 28.6057 16.4369 28.6682C15.9579 28.7308 15.479 28.762 15 28.762ZM9.00246 27.1989C8.33606 26.8237 7.70091 26.3912 7.09699 25.9014C6.49307 25.4117 5.94121 24.875 5.44142 24.2914C4.94162 23.7078 4.49909 23.0774 4.11384 22.4C3.72858 21.7226 3.411 21.0192 3.1611 20.2897C2.74461 21.04 2.53636 21.8372 2.53636 22.6814C2.53636 23.5255 2.75502 24.3122 3.19234 25.0417C3.79626 26.0421 4.64487 26.756 5.73817 27.1832C6.83147 27.6105 7.91957 27.6157 9.00246 27.1989ZM20.9975 27.1989C22.0804 27.6157 23.1685 27.6105 24.2618 27.1832C25.3551 26.756 26.2037 26.0421 26.8077 25.0417C27.245 24.3122 27.4636 23.5255 27.4636 22.6814C27.4636 21.8372 27.2554 21.04 26.8389 20.2897C26.589 21.0192 26.2714 21.7226 25.8862 22.4C25.5009 23.0774 25.0584 23.7078 24.5586 24.2914C24.0588 24.875 23.5121 25.4117 22.9186 25.9014C22.3251 26.3912 21.6848 26.8237 20.9975 27.1989ZM15 26.261C17.7905 26.261 20.1541 25.2918 22.0908 23.3535C24.0275 21.4152 24.9959 19.0496 24.9959 16.2568C24.9959 15.6524 24.949 15.074 24.8553 14.5217C24.7616 13.9694 24.6211 13.4327 24.4336 12.9116C23.8297 13.3285 23.1633 13.6515 22.4345 13.8808C21.7056 14.1101 20.9455 14.2247 20.1541 14.2247C18.03 14.2247 16.2235 13.4796 14.7345 11.9894C13.2455 10.4992 12.501 8.69113 12.501 6.56524C10.3352 7.10714 8.54431 8.27429 7.12823 10.0667C5.71214 11.8591 5.0041 13.9225 5.0041 16.2568C5.0041 19.0496 5.97245 21.4152 7.90916 23.3535C9.84586 25.2918 12.2095 26.261 15 26.261ZM11.2515 19.0705C10.8142 19.0705 10.4446 18.9194 10.1426 18.6172C9.84066 18.3149 9.68968 17.945 9.68968 17.5073C9.68968 17.0696 9.84066 16.6997 10.1426 16.3975C10.4446 16.0953 10.8142 15.9442 11.2515 15.9442C11.6889 15.9442 12.0585 16.0953 12.3605 16.3975C12.6624 16.6997 12.8134 17.0696 12.8134 17.5073C12.8134 17.945 12.6624 18.3149 12.3605 18.6172C12.0585 18.9194 11.6889 19.0705 11.2515 19.0705ZM18.7485 19.0705C18.3111 19.0705 17.9415 18.9194 17.6395 18.6172C17.3376 18.3149 17.1866 17.945 17.1866 17.5073C17.1866 17.0696 17.3376 16.6997 17.6395 16.3975C17.9415 16.0953 18.3111 15.9442 18.7485 15.9442C19.1858 15.9442 19.5554 16.0953 19.8574 16.3975C20.1593 16.6997 20.3103 17.0696 20.3103 17.5073C20.3103 17.945 20.1593 18.3149 19.8574 18.6172C19.5554 18.9194 19.1858 19.0705 18.7485 19.0705ZM2.94244 13.0054C3.12986 12.3176 3.36935 11.6559 3.6609 11.0202C3.95244 10.3845 4.29605 9.78534 4.69172 9.2226C5.0874 8.65987 5.51951 8.1284 5.98807 7.62819C6.45663 7.12798 6.96163 6.66945 7.50307 6.25261C6.60761 6.25261 5.77982 6.47145 5.01972 6.90914C4.25961 7.34682 3.65048 7.95124 3.19234 8.72239C2.77584 9.38934 2.54677 10.0875 2.50512 10.817C2.46347 11.5465 2.60924 12.276 2.94244 13.0054ZM27.0576 13.0054C27.3908 12.276 27.5365 11.5465 27.4949 10.817C27.4532 10.0875 27.2242 9.38934 26.8077 8.72239C26.3495 7.95124 25.7404 7.34682 24.9803 6.90914C24.2202 6.47145 23.3924 6.25261 22.4969 6.25261C23.0384 6.66945 23.5434 7.12798 24.0119 7.62819C24.4805 8.1284 24.9126 8.65987 25.3083 9.2226C25.7039 9.78534 26.0476 10.3845 26.3391 11.0202C26.6306 11.6559 26.8701 12.3176 27.0576 13.0054ZM20.1541 11.7236C20.7581 11.7236 21.3203 11.6299 21.8409 11.4423C22.3616 11.2547 22.8405 10.9942 23.2779 10.6607C22.8405 9.99376 22.3199 9.39455 21.716 8.86308C21.1121 8.33161 20.4561 7.86787 19.7481 7.47187C19.04 7.07587 18.2903 6.77366 17.499 6.56524C16.7076 6.35682 15.8746 6.25261 15 6.25261V6.56524C15 8.00334 15.4998 9.2226 16.4994 10.223C17.499 11.2234 18.7172 11.7236 20.1541 11.7236ZM18.4673 4.25178C18.0508 3.70988 17.5406 3.28262 16.9367 2.96999C16.3328 2.65736 15.6872 2.50105 15 2.50105C14.3128 2.50105 13.6672 2.65736 13.0633 2.96999C12.4594 3.28262 11.9492 3.70988 11.5327 4.25178C12.0741 4.08504 12.6364 3.95999 13.2195 3.87662C13.8026 3.79325 14.3961 3.75157 15 3.75157C15.6039 3.75157 16.1974 3.79325 16.7805 3.87662C17.3636 3.95999 17.9259 4.08504 18.4673 4.25178Z" fill="#383838"/>
</svg>
