<svg width="34" height="32" viewBox="0 0 34 32" fill="none" xmlns="http://www.w3.org/2000/svg">
<path d="M28.1815 14.5L25.9259 12.3265V7C25.9259 6.175 25.2259 5.5 24.3704 5.5H22.8148C21.9593 5.5 21.2593 6.175 21.2593 7V7.8295L18.1482 4.8325C17.7235 4.4455 17.3346 4 16.5926 4C15.8506 4 15.4617 4.4455 15.0371 4.8325L5.00372 14.5C4.51839 14.9875 4.14816 15.343 4.14816 16C4.14816 16.8445 4.82016 17.5 5.70372 17.5H7.25927V26.5C7.25927 27.325 7.95927 28 8.81483 28H11.9259C12.7851 28 13.4815 27.3284 13.4815 26.5V20.5C13.4815 19.675 14.1815 19 15.0371 19H18.1482C19.0037 19 19.7037 19.675 19.7037 20.5V26.5C19.7037 27.3284 19.6224 28 20.4815 28H24.3704C25.2259 28 25.9259 27.325 25.9259 26.5V17.5H27.4815C28.3651 17.5 29.0371 16.8445 29.0371 16C29.0371 15.343 28.6668 14.9875 28.1815 14.5Z" stroke="#383838" stroke-width="2" stroke-linejoin="round"/>
</svg>
