<svg width="13" height="13" viewBox="0 0 13 13" fill="none" xmlns="http://www.w3.org/2000/svg">
<path d="M6.5 13C5.73709 13 5.0225 12.8429 4.35622 12.5286C3.68995 12.2144 3.11013 11.7899 2.61678 11.2551C2.12344 10.7203 1.73181 10.0918 1.4419 9.36959C1.152 8.64737 1.00704 7.87277 1.00704 7.0458C1.00704 6.21883 1.152 5.44423 1.4419 4.72201C1.73181 3.99979 2.12344 3.37129 2.61678 2.83651C3.11013 2.30174 3.68995 1.87723 4.35622 1.56298C5.0225 1.24873 5.73709 1.0916 6.5 1.0916C7.26291 1.0916 7.9775 1.24873 8.64378 1.56298C9.31005 1.87723 9.88987 2.30174 10.3832 2.83651C10.8766 3.37129 11.2682 3.99979 11.5581 4.72201C11.848 5.44423 11.993 6.21883 11.993 7.0458C11.993 7.87277 11.848 8.64737 11.5581 9.36959C11.2682 10.0918 10.8766 10.7203 10.3832 11.2551C9.88987 11.7899 9.31005 12.2144 8.64378 12.5286C7.9775 12.8429 7.26291 13 6.5 13ZM8.20892 9.82443L9.06338 8.89822L7.11033 6.78117V3.73791H5.88967V7.31043L8.20892 9.82443ZM2.5939 0L3.44836 0.926209L0.85446 3.73791L0 2.8117L2.5939 0ZM10.4061 0L13 2.8117L12.1455 3.73791L9.55164 0.926209L10.4061 0ZM6.5 11.6768C7.69014 11.6768 8.69973 11.2275 9.52876 10.3289C10.3578 9.43024 10.7723 8.33588 10.7723 7.0458C10.7723 5.75572 10.3578 4.66137 9.52876 3.76272C8.69973 2.86408 7.69014 2.41476 6.5 2.41476C5.30986 2.41476 4.30027 2.86408 3.47124 3.76272C2.64221 4.66137 2.2277 5.75572 2.2277 7.0458C2.2277 8.33588 2.64221 9.43024 3.47124 10.3289C4.30027 11.2275 5.30986 11.6768 6.5 11.6768Z" fill="#383838"/>
</svg>
